<svg width="70" height="73" viewBox="0 0 70 73" fill="none" xmlns="http://www.w3.org/2000/svg">
<path d="M5 19C5 14.5817 8.58172 11 13 11H55C59.4183 11 63 14.5817 63 19V30H5V19Z" fill="#DD0031"/>
<path d="M5 61.5C5 65.9183 8.58172 69.5 13 69.5H55C59.4183 69.5 63 65.9183 63 61.5V30H5V61.5Z" fill="white"/>
<path fill-rule="evenodd" clip-rule="evenodd" d="M3.60349 10.1401C5.44227 8.30133 7.9362 7.26831 10.5366 7.26831H56.293C58.8934 7.26831 61.3874 8.30133 63.2261 10.1401C65.0649 11.9789 66.0979 14.4728 66.0979 17.0732V29.5C66.0979 31.305 64.6347 32.7683 62.8296 32.7683C61.0246 32.7683 59.5613 31.305 59.5613 29.5V17.0732C59.5613 16.2064 59.217 15.3751 58.604 14.7622C57.9911 14.1493 57.1598 13.8049 56.293 13.8049H10.5366C9.66982 13.8049 8.83851 14.1493 8.22558 14.7622C7.61265 15.3751 7.26831 16.2064 7.26831 17.0732V62.8296C7.26831 63.6964 7.61265 64.5277 8.22558 65.1407C8.83851 65.7536 9.66982 66.0979 10.5366 66.0979H21.9757C23.7808 66.0979 25.244 67.5612 25.244 69.3662C25.244 71.1713 23.7808 72.6346 21.9757 72.6346H10.5366C7.93619 72.6346 5.44227 71.6015 3.60349 69.7628C1.76471 67.924 0.731689 65.4301 0.731689 62.8296V17.0732C0.731689 14.4728 1.76471 11.9789 3.60349 10.1401Z" fill="black"/>
<path fill-rule="evenodd" clip-rule="evenodd" d="M46.4881 0.731689C48.2931 0.731689 49.7564 2.19496 49.7564 4V17.0732C49.7564 18.8783 48.2931 20.3416 46.4881 20.3416C44.683 20.3416 43.2198 18.8783 43.2198 17.0732V4C43.2198 2.19496 44.683 0.731689 46.4881 0.731689Z" fill="black"/>
<path fill-rule="evenodd" clip-rule="evenodd" d="M20.3416 0.731689C22.1466 0.731689 23.6099 2.19496 23.6099 4V17.0732C23.6099 18.8783 22.1466 20.3416 20.3416 20.3416C18.5365 20.3416 17.0732 18.8783 17.0732 17.0732V4C17.0732 2.19496 18.5365 0.731689 20.3416 0.731689Z" fill="black"/>
<path fill-rule="evenodd" clip-rule="evenodd" d="M0.731689 30.1465C0.731689 28.3415 2.19496 26.8782 4 26.8782H20.3416C22.1466 26.8782 23.6099 28.3415 23.6099 30.1465C23.6099 31.9515 22.1466 33.4148 20.3416 33.4148H4C2.19496 33.4148 0.731689 31.9515 0.731689 30.1465Z" fill="black"/>
<path d="M66.0979 49.7564C66.0979 54.9572 64.0319 59.9451 60.3543 63.6227C56.6768 67.3002 51.6889 69.3662 46.488 69.3662C41.2872 69.3662 36.2993 67.3002 32.6218 63.6227C28.9442 59.9451 26.8782 54.9572 26.8782 49.7564C26.8782 44.5555 28.9442 39.5677 32.6218 35.8901C36.2993 32.2125 41.2872 30.1465 46.488 30.1465C51.6889 30.1465 56.6768 32.2125 60.3543 35.8901C64.0319 39.5677 66.0979 44.5555 66.0979 49.7564Z" fill="#F0F0F0"/>
<path fill-rule="evenodd" clip-rule="evenodd" d="M46.4881 33.4148C42.154 33.4148 37.9975 35.1365 34.9328 38.2011C31.8682 41.2658 30.1465 45.4223 30.1465 49.7564C30.1465 54.0904 31.8682 58.247 34.9328 61.3116C37.9975 64.3762 42.154 66.0979 46.4881 66.0979C50.8221 66.0979 54.9786 64.3762 58.0433 61.3116C61.1079 58.247 62.8296 54.0904 62.8296 49.7564C62.8296 45.4223 61.1079 41.2658 58.0433 38.2011C54.9786 35.1365 50.8221 33.4148 46.4881 33.4148ZM30.3107 33.5791C34.6012 29.2886 40.4204 26.8782 46.4881 26.8782C52.5557 26.8782 58.3749 29.2886 62.6654 33.5791C66.9559 37.8695 69.3662 43.6887 69.3662 49.7564C69.3662 55.824 66.9559 61.6432 62.6654 65.9337C58.3749 70.2242 52.5557 72.6346 46.4881 72.6346C40.4204 72.6346 34.6012 70.2242 30.3107 65.9337C26.0202 61.6432 23.6099 55.824 23.6099 49.7564C23.6099 43.6887 26.0202 37.8695 30.3107 33.5791Z" fill="black"/>
<path fill-rule="evenodd" clip-rule="evenodd" d="M46.488 39.9514C48.2931 39.9514 49.7564 41.4147 49.7564 43.2198V49.0427L53.4828 52.1481C54.8695 53.3036 55.0569 55.3645 53.9013 56.7512C52.7457 58.1378 50.6849 58.3252 49.2982 57.1696L44.3957 53.0842C43.6506 52.4633 43.2197 51.5434 43.2197 50.5735V43.2198C43.2197 41.4147 44.683 39.9514 46.488 39.9514Z" fill="#DD0031"/>
</svg>
