<svg width="216" height="44" viewBox="0 0 216 44" fill="none" xmlns="http://www.w3.org/2000/svg">
<path d="M212.626 5.83447C213.624 5.83447 214.436 6.10506 215.061 6.64623C215.687 7.17049 216 7.85541 216 8.70099C216 9.54657 215.746 10.2399 215.239 10.7811C214.749 11.3223 214.123 11.7535 213.362 12.0748C212.601 12.3962 211.764 12.6329 210.85 12.7851C209.937 12.9373 209.058 13.0388 208.212 13.0895C208.161 13.394 208.136 13.7068 208.136 14.0281C208.136 14.823 208.322 15.4825 208.694 16.0068C209.066 16.531 209.726 16.7932 210.673 16.7932C211.265 16.7932 211.857 16.7086 212.449 16.5395C213.04 16.3535 213.59 16.1167 214.097 15.8292L214.529 17.402C213.937 17.7402 213.294 18.0108 212.601 18.2138C211.924 18.4167 211.206 18.5182 210.445 18.5182C209.7 18.5182 209.049 18.3998 208.491 18.163C207.933 17.9263 207.468 17.5965 207.096 17.1737C206.741 16.7509 206.47 16.2605 206.284 15.7024C206.098 15.1274 206.005 14.5101 206.005 13.8506C206.005 12.8359 206.157 11.8465 206.462 10.8826C206.766 9.91862 207.206 9.06459 207.781 8.32048C208.356 7.55946 209.049 6.95909 209.861 6.51939C210.69 6.06278 211.611 5.83447 212.626 5.83447ZM212.347 7.50872C211.84 7.50872 211.375 7.6271 210.952 7.86386C210.529 8.08371 210.149 8.37967 209.81 8.75172C209.489 9.10686 209.218 9.5212 208.999 9.99472C208.779 10.4513 208.618 10.9079 208.517 11.3646C209.109 11.3476 209.717 11.2969 210.343 11.2124C210.986 11.1109 211.569 10.9671 212.093 10.7811C212.618 10.5782 213.049 10.3245 213.387 10.0201C213.725 9.69877 213.895 9.30135 213.895 8.82782C213.895 8.43886 213.751 8.12599 213.463 7.88923C213.193 7.63556 212.821 7.50872 212.347 7.50872Z" fill="white"/>
<path d="M202.127 5.83447C202.804 5.83447 203.421 5.91057 203.979 6.06278C204.554 6.21498 205.036 6.40947 205.425 6.64623L204.892 8.32048C204.503 8.11754 204.081 7.95687 203.624 7.83849C203.167 7.7032 202.685 7.63555 202.178 7.63555C201.468 7.63555 200.834 7.78776 200.275 8.09217C199.734 8.39658 199.278 8.81937 198.906 9.36054C198.534 9.88479 198.246 10.5021 198.043 11.2124C197.857 11.9057 197.764 12.6583 197.764 13.4701C197.764 13.9098 197.806 14.3325 197.891 14.7384C197.992 15.1274 198.145 15.4741 198.348 15.7785C198.567 16.066 198.855 16.3027 199.21 16.4888C199.582 16.6579 200.047 16.7424 200.605 16.7424C201.146 16.7424 201.662 16.6748 202.153 16.5395C202.643 16.3873 203.1 16.2013 203.522 15.9814L203.979 17.6049C203.472 17.8924 202.914 18.1123 202.305 18.2645C201.696 18.4336 201.053 18.5182 200.377 18.5182C199.582 18.5182 198.88 18.3913 198.271 18.1376C197.663 17.8671 197.155 17.5035 196.749 17.0469C196.343 16.5902 196.039 16.0575 195.836 15.4487C195.633 14.8399 195.532 14.1888 195.532 13.4954C195.532 12.4807 195.675 11.5083 195.963 10.5782C196.267 9.64803 196.699 8.83628 197.257 8.1429C197.832 7.43261 198.525 6.87454 199.337 6.46866C200.166 6.04587 201.096 5.83447 202.127 5.83447Z" fill="white"/>
<path d="M182.468 18.2645L184.624 6.08815H186.78L186.273 9.03076C186.51 8.59106 186.772 8.17673 187.059 7.78776C187.347 7.39879 187.668 7.06056 188.023 6.77306C188.378 6.48557 188.776 6.25726 189.215 6.08815C189.655 5.91903 190.146 5.83447 190.687 5.83447C191.211 5.83447 191.668 5.9444 192.057 6.16425C192.462 6.36719 192.801 6.66314 193.071 7.05211C193.342 7.42416 193.545 7.87232 193.68 8.39658C193.815 8.90392 193.883 9.47046 193.883 10.0962C193.883 10.3499 193.866 10.6289 193.832 10.9333C193.815 11.2208 193.782 11.5083 193.731 11.7958L192.589 18.2645H190.357L191.473 11.948C191.575 11.373 191.625 10.8065 191.625 10.2484C191.625 9.50428 191.498 8.88701 191.245 8.39658C191.008 7.88923 190.585 7.63555 189.976 7.63555C189.571 7.63555 189.173 7.74548 188.784 7.96533C188.412 8.18518 188.049 8.48113 187.693 8.85319C187.355 9.22524 187.034 9.65649 186.729 10.1469C186.425 10.6374 186.138 11.1447 185.867 11.669L184.7 18.2645H182.468Z" fill="white"/>
<path d="M178.147 5.83447C179.145 5.83447 179.957 6.10506 180.583 6.64623C181.208 7.17049 181.521 7.85541 181.521 8.70099C181.521 9.54657 181.268 10.2399 180.76 10.7811C180.27 11.3223 179.644 11.7535 178.883 12.0748C178.122 12.3962 177.285 12.6329 176.372 12.7851C175.458 12.9373 174.579 13.0388 173.733 13.0895C173.683 13.394 173.657 13.7068 173.657 14.0281C173.657 14.823 173.843 15.4825 174.215 16.0068C174.587 16.531 175.247 16.7932 176.194 16.7932C176.786 16.7932 177.378 16.7086 177.97 16.5395C178.562 16.3535 179.111 16.1167 179.619 15.8292L180.05 17.402C179.458 17.7402 178.815 18.0108 178.122 18.2138C177.445 18.4167 176.727 18.5182 175.966 18.5182C175.222 18.5182 174.571 18.3998 174.012 18.163C173.454 17.9263 172.989 17.5965 172.617 17.1737C172.262 16.7509 171.991 16.2605 171.805 15.7024C171.619 15.1274 171.526 14.5101 171.526 13.8506C171.526 12.8359 171.679 11.8465 171.983 10.8826C172.287 9.91862 172.727 9.06459 173.302 8.32048C173.877 7.55946 174.571 6.95909 175.382 6.51939C176.211 6.06278 177.133 5.83447 178.147 5.83447ZM177.868 7.50872C177.361 7.50872 176.896 7.6271 176.473 7.86386C176.05 8.08371 175.67 8.37967 175.332 8.75172C175.01 9.10686 174.74 9.5212 174.52 9.99472C174.3 10.4513 174.139 10.9079 174.038 11.3646C174.63 11.3476 175.239 11.2969 175.864 11.2124C176.507 11.1109 177.09 10.9671 177.615 10.7811C178.139 10.5782 178.57 10.3245 178.908 10.0201C179.247 9.69877 179.416 9.30135 179.416 8.82782C179.416 8.43886 179.272 8.12599 178.984 7.88923C178.714 7.63556 178.342 7.50872 177.868 7.50872Z" fill="white"/>
<path d="M171.114 8.0416C171.046 8.02469 170.97 8.01623 170.886 8.01623C170.801 8.01623 170.725 8.01623 170.657 8.01623C169.761 8.01623 168.958 8.31218 168.247 8.90409C167.554 9.49599 166.954 10.3162 166.446 11.3647L165.229 18.2646H162.996L165.153 6.08831H167.334L166.776 9.25923C167.165 8.1938 167.672 7.3905 168.298 6.84933C168.924 6.29125 169.676 6.01221 170.556 6.01221C170.691 6.01221 170.835 6.02066 170.987 6.03758C171.139 6.03758 171.258 6.05449 171.342 6.08831L171.114 8.0416Z" fill="white"/>
<path d="M158.422 5.83447C159.42 5.83447 160.232 6.10506 160.857 6.64623C161.483 7.17049 161.796 7.85541 161.796 8.70099C161.796 9.54657 161.542 10.2399 161.035 10.7811C160.545 11.3223 159.919 11.7535 159.158 12.0748C158.397 12.3962 157.56 12.6329 156.646 12.7851C155.733 12.9373 154.854 13.0388 154.008 13.0895C153.957 13.394 153.932 13.7068 153.932 14.0281C153.932 14.823 154.118 15.4825 154.49 16.0068C154.862 16.531 155.522 16.7932 156.469 16.7932C157.061 16.7932 157.653 16.7086 158.245 16.5395C158.836 16.3535 159.386 16.1167 159.893 15.8292L160.325 17.402C159.733 17.7402 159.09 18.0108 158.397 18.2138C157.72 18.4167 157.002 18.5182 156.241 18.5182C155.496 18.5182 154.845 18.3998 154.287 18.163C153.729 17.9263 153.264 17.5965 152.892 17.1737C152.537 16.7509 152.266 16.2605 152.08 15.7024C151.894 15.1274 151.801 14.5101 151.801 13.8506C151.801 12.8359 151.953 11.8465 152.258 10.8826C152.562 9.91862 153.002 9.06459 153.577 8.32048C154.152 7.55946 154.845 6.95909 155.657 6.51939C156.486 6.06278 157.407 5.83447 158.422 5.83447ZM158.143 7.50872C157.636 7.50872 157.171 7.6271 156.748 7.86386C156.325 8.08371 155.945 8.37967 155.606 8.75172C155.285 9.10686 155.014 9.5212 154.795 9.99472C154.575 10.4513 154.414 10.9079 154.313 11.3646C154.905 11.3476 155.513 11.2969 156.139 11.2124C156.782 11.1109 157.365 10.9671 157.889 10.7811C158.414 10.5782 158.845 10.3245 159.183 10.0201C159.521 9.69877 159.691 9.30135 159.691 8.82782C159.691 8.43886 159.547 8.12599 159.259 7.88923C158.989 7.63556 158.617 7.50872 158.143 7.50872Z" fill="white"/>
<path d="M138.313 21.6384C138.584 21.7229 138.871 21.7906 139.176 21.8413C139.463 21.909 139.785 21.9428 140.14 21.9428C140.799 21.9428 141.349 21.799 141.789 21.5115C142.212 21.224 142.567 20.8266 142.854 20.3193C143.142 19.8119 143.37 19.22 143.539 18.5436C143.725 17.8671 143.886 17.1483 144.021 16.3873L145.518 7.88925H142.854L143.159 6.08817H145.848L145.974 5.37788C146.296 3.60217 146.871 2.26615 147.699 1.36984C148.528 0.456611 149.712 0 151.251 0C152.333 0 153.255 0.202938 154.016 0.608815L153.585 2.25769C153.229 2.10549 152.874 1.99556 152.519 1.92792C152.164 1.84336 151.775 1.80108 151.352 1.80108C150.456 1.80108 149.763 2.08012 149.272 2.63821C148.782 3.17938 148.418 4.0926 148.181 5.37788L148.054 6.08817H151.936L151.631 7.88925H147.75L146.253 16.4127C146.084 17.4105 145.864 18.3491 145.594 19.2285C145.323 20.1079 144.96 20.8858 144.503 21.5623C144.063 22.2387 143.505 22.7714 142.829 23.1604C142.169 23.5494 141.349 23.7439 140.368 23.7439C139.979 23.7439 139.565 23.71 139.125 23.6424C138.685 23.5747 138.305 23.4902 137.984 23.3887L138.313 21.6384Z" fill="white"/>
<path d="M129.126 18.2645L131.282 6.08815H133.438L132.931 9.03076C133.168 8.59106 133.43 8.17673 133.717 7.78776C134.005 7.39879 134.326 7.06056 134.681 6.77306C135.036 6.48557 135.434 6.25726 135.874 6.08815C136.313 5.91903 136.804 5.83447 137.345 5.83447C137.869 5.83447 138.326 5.9444 138.715 6.16425C139.121 6.36719 139.459 6.66314 139.729 7.05211C140 7.42416 140.203 7.87232 140.338 8.39658C140.474 8.90392 140.541 9.47046 140.541 10.0962C140.541 10.3499 140.524 10.6289 140.49 10.9333C140.474 11.2208 140.44 11.5083 140.389 11.7958L139.247 18.2645H137.015L138.131 11.948C138.233 11.373 138.283 10.8065 138.283 10.2484C138.283 9.50428 138.157 8.88701 137.903 8.39658C137.666 7.88923 137.243 7.63555 136.635 7.63555C136.229 7.63555 135.831 7.74548 135.442 7.96533C135.07 8.18518 134.707 8.48113 134.352 8.85319C134.013 9.22524 133.692 9.65649 133.388 10.1469C133.083 10.6374 132.796 11.1447 132.525 11.669L131.358 18.2645H129.126Z" fill="white"/>
<path d="M127.995 10.8065C127.995 11.7197 127.843 12.6414 127.538 13.5715C127.234 14.4847 126.794 15.3134 126.219 16.0575C125.661 16.7847 124.968 17.3766 124.139 17.8332C123.31 18.2899 122.372 18.5182 121.323 18.5182C120.562 18.5182 119.886 18.3998 119.294 18.163C118.719 17.9093 118.229 17.5627 117.823 17.123C117.417 16.6833 117.112 16.1674 116.909 15.5755C116.707 14.9667 116.605 14.3072 116.605 13.5969C116.605 12.5991 116.749 11.6351 117.036 10.705C117.341 9.75796 117.772 8.92929 118.33 8.219C118.888 7.49181 119.573 6.91681 120.385 6.49402C121.213 6.05432 122.152 5.83447 123.201 5.83447C123.962 5.83447 124.638 5.96976 125.23 6.24035C125.822 6.49402 126.321 6.84917 126.727 7.30578C127.149 7.76239 127.462 8.29511 127.665 8.90392C127.885 9.49583 127.995 10.13 127.995 10.8065ZM121.45 16.7932C122.127 16.7932 122.735 16.6241 123.277 16.2858C123.818 15.9307 124.266 15.4741 124.621 14.916C124.993 14.3579 125.272 13.7322 125.458 13.0388C125.661 12.3285 125.763 11.6267 125.763 10.9333C125.763 10.4767 125.703 10.0455 125.585 9.63958C125.484 9.21679 125.323 8.85319 125.103 8.54878C124.883 8.24437 124.596 8.00761 124.241 7.83849C123.902 7.65247 123.497 7.55945 123.023 7.55945C122.397 7.55945 121.822 7.72857 121.298 8.0668C120.791 8.38812 120.351 8.82782 119.979 9.3859C119.624 9.92708 119.345 10.5613 119.142 11.2885C118.939 11.9987 118.837 12.7513 118.837 13.5462C118.837 14.5439 119.049 15.3388 119.472 15.9307C119.911 16.5057 120.571 16.7932 121.45 16.7932Z" fill="white"/>
<path d="M111.681 1.06543C112.476 1.06543 113.262 1.14999 114.04 1.3191C114.818 1.47131 115.512 1.69116 116.121 1.97866L115.689 3.729C115.08 3.47533 114.446 3.28085 113.787 3.14555C113.127 2.99335 112.451 2.91725 111.757 2.91725C110.607 2.91725 109.584 3.12019 108.688 3.52606C107.808 3.93194 107.064 4.49003 106.456 5.20031C105.847 5.9106 105.382 6.75618 105.06 7.73705C104.756 8.71792 104.604 9.79181 104.604 10.9587C104.604 11.8212 104.722 12.6076 104.959 13.3179C105.196 14.0112 105.551 14.6116 106.024 15.119C106.498 15.6263 107.098 16.0237 107.825 16.3112C108.553 16.5818 109.398 16.7171 110.362 16.7171C110.971 16.7171 111.58 16.6748 112.189 16.5903C112.814 16.4888 113.415 16.3366 113.99 16.1337L114.218 17.8586C113.609 18.0954 112.95 18.273 112.239 18.3913C111.529 18.5097 110.793 18.5689 110.032 18.5689C108.832 18.5689 107.749 18.3744 106.785 17.9855C105.838 17.5965 105.035 17.0638 104.375 16.3873C103.716 15.7109 103.209 14.916 102.853 14.0028C102.498 13.0896 102.321 12.1087 102.321 11.0602C102.321 9.67343 102.524 8.37969 102.929 7.17897C103.335 5.96133 103.927 4.90436 104.705 4.00805C105.5 3.09482 106.481 2.37608 107.648 1.85182C108.815 1.32756 110.159 1.06543 111.681 1.06543Z" fill="white"/>
<path d="M91.3375 17.9094H89.2066L89.79 14.5355C89.5364 14.9583 89.2404 15.3895 88.9022 15.8292C88.5809 16.252 88.2173 16.641 87.8114 16.9961C87.4224 17.3344 86.9912 17.6134 86.5176 17.8333C86.061 18.0531 85.5791 18.163 85.0717 18.163C84.4967 18.163 83.9978 18.0447 83.575 17.8079C83.1692 17.5711 82.8309 17.2583 82.5603 16.8693C82.3067 16.4634 82.1122 15.9984 81.9769 15.4741C81.8585 14.9329 81.7993 14.3579 81.7993 13.7491C81.7993 12.7852 81.9431 11.8127 82.2306 10.8319C82.535 9.83409 82.9747 8.94623 83.5497 8.1683C84.1416 7.37345 84.8688 6.73081 85.7313 6.24038C86.6107 5.73303 87.6338 5.47935 88.8007 5.47935C89.7816 5.47935 90.5933 5.6231 91.236 5.9106L92.276 0H94.5084L91.3375 17.9094ZM85.6552 16.4127C86.0949 16.4127 86.5261 16.2689 86.9489 15.9814C87.3886 15.677 87.8029 15.2965 88.1919 14.8399C88.5978 14.3833 88.9698 13.8675 89.3081 13.2925C89.6632 12.7175 89.9761 12.151 90.2467 11.5929L90.9569 7.55948C90.7033 7.45801 90.3819 7.38191 89.993 7.33117C89.6209 7.26353 89.2658 7.2297 88.9275 7.2297C88.1158 7.2297 87.4055 7.42419 86.7967 7.81315C86.1879 8.18521 85.6721 8.6841 85.2493 9.30983C84.8434 9.91864 84.539 10.612 84.3361 11.39C84.1331 12.151 84.0316 12.912 84.0316 13.673C84.0316 14.0112 84.057 14.3495 84.1077 14.6877C84.1585 15.009 84.243 15.2965 84.3614 15.5502C84.4798 15.8039 84.6405 16.0153 84.8434 16.1844C85.0633 16.3366 85.3338 16.4127 85.6552 16.4127Z" fill="white"/>
<path d="M67.9489 17.909L70.1051 5.73268H72.2614L71.754 8.67529C71.9908 8.23559 72.2529 7.82126 72.5404 7.43229C72.8279 7.04332 73.1492 6.70509 73.5044 6.4176C73.8595 6.1301 74.2569 5.90179 74.6966 5.73268C75.1363 5.56356 75.6268 5.479 76.1679 5.479C76.6922 5.479 77.1488 5.58893 77.5378 5.80878C77.9437 6.01172 78.2819 6.30767 78.5525 6.69664C78.8231 7.06869 79.026 7.51685 79.1613 8.04111C79.2966 8.54846 79.3642 9.11499 79.3642 9.74072C79.3642 9.9944 79.3473 10.2734 79.3135 10.5778C79.2966 10.8653 79.2628 11.1528 79.212 11.4403L78.0705 17.909H75.8382L76.9543 11.5925C77.0558 11.0175 77.1065 10.451 77.1065 9.89293C77.1065 9.14882 76.9797 8.53154 76.726 8.04111C76.4893 7.53376 76.0665 7.28009 75.4577 7.28009C75.0518 7.28009 74.6544 7.39001 74.2654 7.60986C73.8933 7.82971 73.5297 8.12567 73.1746 8.49772C72.8364 8.86978 72.515 9.30102 72.2106 9.79146C71.9062 10.2819 71.6187 10.7892 71.3481 11.3135L70.1812 17.909H67.9489Z" fill="white"/>
<path d="M63.3749 5.479C64.3726 5.479 65.1844 5.74959 65.8101 6.29076C66.4359 6.81502 66.7487 7.49994 66.7487 8.34552C66.7487 9.1911 66.495 9.88447 65.9877 10.4256C65.4973 10.9668 64.8715 11.3981 64.1105 11.7194C63.3495 12.0407 62.5124 12.2775 61.5991 12.4297C60.6859 12.5819 59.8065 12.6833 58.9609 12.7341C58.9102 13.0385 58.8848 13.3513 58.8848 13.6727C58.8848 14.4675 59.0709 15.1271 59.4429 15.6513C59.815 16.1756 60.4745 16.4377 61.4216 16.4377C62.0135 16.4377 62.6054 16.3532 63.1973 16.184C63.7892 15.998 64.3388 15.7612 64.8462 15.4737L65.2774 17.0465C64.6855 17.3848 64.0429 17.6553 63.3495 17.8583C62.673 18.0612 61.9543 18.1627 61.1933 18.1627C60.4491 18.1627 59.7981 18.0443 59.24 17.8075C58.6819 17.5708 58.2168 17.241 57.8448 16.8182C57.4896 16.3954 57.219 15.905 57.033 15.3469C56.847 14.7719 56.754 14.1546 56.754 13.4951C56.754 12.4804 56.9062 11.4911 57.2106 10.5271C57.515 9.56315 57.9547 8.70912 58.5297 7.96501C59.1047 7.20399 59.7981 6.60362 60.6098 6.16392C61.4385 5.70731 62.3602 5.479 63.3749 5.479ZM63.0958 7.15325C62.5885 7.15325 62.1234 7.27163 61.7006 7.50839C61.2778 7.72824 60.8973 8.0242 60.5591 8.39625C60.2378 8.75139 59.9672 9.16573 59.7473 9.63925C59.5275 10.0959 59.3668 10.5525 59.2653 11.0091C59.8572 10.9922 60.4661 10.9414 61.0918 10.8569C61.7344 10.7554 62.3179 10.6117 62.8421 10.4256C63.3664 10.2227 63.7976 9.96903 64.1359 9.66462C64.4741 9.3433 64.6432 8.94588 64.6432 8.47235C64.6432 8.08339 64.4995 7.77052 64.212 7.53376C63.9414 7.28009 63.5693 7.15325 63.0958 7.15325Z" fill="white"/>
<path d="M47.6736 5.7334H49.906L50.4641 2.53711H52.6964L52.1383 5.7334H56.0702L55.7405 7.53448H51.8085L50.6416 14.1554C50.5909 14.4598 50.5655 14.7134 50.5655 14.9164C50.5655 15.4068 50.6755 15.7789 50.8953 16.0326C51.1152 16.2693 51.4788 16.3877 51.9861 16.3877C52.4089 16.3877 52.8232 16.3454 53.2291 16.2609C53.6519 16.1594 54.0493 16.0326 54.4214 15.8803L54.5736 17.5039C54.2015 17.6899 53.7449 17.8421 53.2037 17.9605C52.6795 18.0958 52.1468 18.1634 51.6056 18.1634C50.5402 18.1634 49.7284 17.8928 49.1703 17.3517C48.6122 16.7936 48.3332 16.0241 48.3332 15.0432C48.3332 14.8572 48.3417 14.6796 48.3586 14.5105C48.3755 14.3245 48.4008 14.1554 48.4347 14.0032L49.5762 7.53448H47.3439L47.6736 5.7334Z" fill="white"/>
<path d="M33.4651 17.909L35.6213 5.73268H37.7775L37.2702 8.67529C37.507 8.23559 37.7691 7.82126 38.0566 7.43229C38.3441 7.04332 38.6654 6.70509 39.0205 6.4176C39.3757 6.1301 39.7731 5.90179 40.2128 5.73268C40.6525 5.56356 41.1429 5.479 41.6841 5.479C42.2084 5.479 42.665 5.58893 43.054 5.80878C43.4598 6.01172 43.7981 6.30767 44.0687 6.69664C44.3392 7.06869 44.5422 7.51685 44.6775 8.04111C44.8128 8.54846 44.8804 9.11499 44.8804 9.74072C44.8804 9.9944 44.8635 10.2734 44.8297 10.5778C44.8128 10.8653 44.7789 11.1528 44.7282 11.4403L43.5867 17.909H41.3543L42.4705 11.5925C42.572 11.0175 42.6227 10.451 42.6227 9.89293C42.6227 9.14882 42.4959 8.53154 42.2422 8.04111C42.0054 7.53376 41.5826 7.28009 40.9738 7.28009C40.568 7.28009 40.1705 7.39001 39.7816 7.60986C39.4095 7.82971 39.0459 8.12567 38.6908 8.49772C38.3525 8.86978 38.0312 9.30102 37.7268 9.79146C37.4224 10.2819 37.1349 10.7892 36.8643 11.3135L35.6974 17.909H33.4651Z" fill="white"/>
<path d="M31.827 10.451C31.827 11.3642 31.6748 12.2859 31.3704 13.2161C31.0659 14.1293 30.6262 14.9579 30.0512 15.7021C29.4932 16.4293 28.7998 17.0212 27.9711 17.4778C27.1425 17.9344 26.2039 18.1627 25.1553 18.1627C24.3943 18.1627 23.7179 18.0443 23.126 17.8075C22.551 17.5539 22.0605 17.2072 21.6546 16.7675C21.2488 16.3278 20.9444 15.812 20.7414 15.2201C20.5385 14.6113 20.437 13.9517 20.437 13.2414C20.437 12.2436 20.5808 11.2797 20.8683 10.3495C21.1727 9.40249 21.6039 8.57382 22.162 7.86354C22.7201 7.13634 23.405 6.56134 24.2168 6.13856C25.0454 5.69885 25.984 5.479 27.0325 5.479C27.7936 5.479 28.47 5.6143 29.0619 5.88488C29.6538 6.13855 30.1527 6.4937 30.5586 6.95031C30.9814 7.40692 31.2942 7.93964 31.4972 8.54846C31.717 9.14036 31.827 9.77455 31.827 10.451ZM25.2822 16.4377C25.9586 16.4377 26.5675 16.2686 27.1086 15.9304C27.6498 15.5752 28.098 15.1186 28.4531 14.5605C28.8252 14.0024 29.1042 13.3767 29.2902 12.6833C29.4932 11.9731 29.5946 11.2712 29.5946 10.5778C29.5946 10.1212 29.5354 9.68999 29.4171 9.28411C29.3156 8.86132 29.1549 8.49772 28.9351 8.19331C28.7152 7.8889 28.4277 7.65214 28.0726 7.48303C27.7344 7.297 27.3285 7.20399 26.855 7.20399C26.2292 7.20399 25.6542 7.3731 25.13 7.71133C24.6226 8.03265 24.1829 8.47235 23.8109 9.03044C23.4557 9.57161 23.1767 10.2058 22.9737 10.933C22.7708 11.6433 22.6693 12.3958 22.6693 13.1907C22.6693 14.1885 22.8807 14.9833 23.3035 15.5752C23.7432 16.1502 24.4028 16.4377 25.2822 16.4377Z" fill="white"/>
<path d="M20.278 7.68613C20.2104 7.66922 20.1343 7.66076 20.0497 7.66076C19.9652 7.66076 19.8891 7.66076 19.8214 7.66076C18.9251 7.66076 18.1218 7.95671 17.4115 8.54862C16.7181 9.14052 16.1178 9.96073 15.6104 11.0093L14.3928 17.9092H12.1605L14.3167 5.73284H16.4983L15.9402 8.90376C16.3292 7.83833 16.8365 7.03503 17.4622 6.49386C18.088 5.93578 18.8405 5.65674 19.7199 5.65674C19.8552 5.65674 19.999 5.66519 20.1512 5.68211C20.3034 5.68211 20.4218 5.69902 20.5063 5.73284L20.278 7.68613Z" fill="white"/>
<path d="M0 17.9093L2.99335 1.01465H12.2524L11.9227 2.86647H4.94664L3.90658 8.7517H10.5528L10.2484 10.6035H3.5768L2.28306 17.9093H0Z" fill="white"/>
<path d="M167.201 34.3016C167.201 35.4685 166.998 36.6276 166.594 37.779C166.189 38.9148 165.606 39.9339 164.843 40.8363C164.097 41.7387 163.171 42.4699 162.066 43.03C160.977 43.5746 159.74 43.8469 158.356 43.8469C157.189 43.8469 156.17 43.6679 155.298 43.3101C154.443 42.9522 153.727 42.4699 153.151 41.8631C152.591 41.2563 152.171 40.564 151.891 39.7861C151.626 38.9926 151.494 38.1757 151.494 37.3356C151.494 35.982 151.704 34.7217 152.124 33.5548C152.56 32.3879 153.159 31.3766 153.921 30.5209C154.699 29.6496 155.625 28.9728 156.699 28.4905C157.788 27.9926 158.993 27.7437 160.316 27.7437C161.483 27.7437 162.494 27.9148 163.35 28.2571C164.221 28.5994 164.937 29.0739 165.497 29.6807C166.073 30.2719 166.5 30.9643 166.781 31.7578C167.061 32.5513 167.201 33.3992 167.201 34.3016ZM158.566 40.9063C159.359 40.9063 160.059 40.7196 160.666 40.3462C161.273 39.9572 161.778 39.4593 162.183 38.8525C162.603 38.2302 162.922 37.5378 163.14 36.7755C163.358 36.0131 163.467 35.2507 163.467 34.4883C163.467 33.9905 163.404 33.5159 163.28 33.0647C163.155 32.598 162.953 32.1934 162.673 31.8511C162.409 31.4933 162.058 31.2132 161.623 31.011C161.203 30.7931 160.689 30.6842 160.083 30.6842C159.289 30.6842 158.589 30.8787 157.982 31.2677C157.391 31.6567 156.885 32.1623 156.465 32.7847C156.061 33.3914 155.749 34.076 155.532 34.8384C155.329 35.6008 155.228 36.3554 155.228 37.1022C155.228 37.6001 155.29 38.0824 155.415 38.5491C155.539 39.0003 155.734 39.4049 155.998 39.7627C156.263 40.105 156.605 40.3851 157.025 40.6029C157.445 40.8051 157.959 40.9063 158.566 40.9063Z" fill="white"/>
<path d="M137.247 28.0234H141.938C143.074 28.0234 144.108 28.1712 145.042 28.4669C145.991 28.7625 146.8 29.1981 147.469 29.7738C148.154 30.3495 148.683 31.0496 149.056 31.8742C149.429 32.6988 149.616 33.6479 149.616 34.7214C149.616 36.075 149.359 37.3042 148.846 38.4088C148.348 39.4979 147.648 40.4237 146.745 41.1861C145.859 41.9484 144.801 42.5397 143.571 42.9597C142.358 43.3643 141.043 43.5665 139.627 43.5665H134.516L137.247 28.0234ZM139.907 40.6259C141.79 40.6104 143.253 40.097 144.295 39.0856C145.353 38.0588 145.882 36.6507 145.882 34.8615C145.882 33.5545 145.493 32.5821 144.715 31.9442C143.937 31.2908 142.918 30.964 141.658 30.964H140.444L138.741 40.6259H139.907Z" fill="white"/>
<path d="M131.37 43.5665H127.636L130.367 28.0234H134.101L131.37 43.5665Z" fill="white"/>
<path d="M121.513 40.5326H115.702L114.208 43.5665H110.101L118.596 28.0234H122.727L125.807 43.5665H121.98L121.513 40.5326ZM117.149 37.592H121.07L120.183 31.3141L117.149 37.592Z" fill="white"/>
<path d="M96.1819 43.5665L98.9124 28.0234H102.647L101.34 35.4916L106.941 28.0234H111.538L105.33 36.0284L109.508 43.5665H105.19L101.27 35.8883L99.916 43.5665H96.1819Z" fill="white"/>
<path d="M81.4817 43.5665L84.2122 28.0234H87.9463L86.6394 35.4916L92.2405 28.0234H96.8381L90.6302 36.0284L94.8077 43.5665H90.4902L86.5694 35.8883L85.2158 43.5665H81.4817Z" fill="white"/>
<path d="M80.7435 34.3016C80.7435 35.4685 80.5412 36.6276 80.1367 37.779C79.7321 38.9148 79.1487 39.9339 78.3863 40.8363C77.6395 41.7387 76.7138 42.4699 75.6091 43.03C74.52 43.5746 73.2831 43.8469 71.8984 43.8469C70.7315 43.8469 69.7124 43.6679 68.8411 43.3101C67.9854 42.9522 67.2697 42.4699 66.694 41.8631C66.1339 41.2563 65.7138 40.564 65.4337 39.7861C65.1692 38.9926 65.037 38.1757 65.037 37.3356C65.037 35.982 65.247 34.7217 65.6671 33.5548C66.1028 32.3879 66.7018 31.3766 67.4641 30.5209C68.2421 29.6496 69.1678 28.9728 70.2414 28.4905C71.3305 27.9926 72.5363 27.7437 73.8587 27.7437C75.0256 27.7437 76.037 27.9148 76.8927 28.2571C77.764 28.5994 78.4797 29.0739 79.0398 29.6807C79.6154 30.2719 80.0433 30.9643 80.3234 31.7578C80.6034 32.5513 80.7435 33.3992 80.7435 34.3016ZM72.1084 40.9063C72.9019 40.9063 73.602 40.7196 74.2088 40.3462C74.8156 39.9572 75.3213 39.4593 75.7258 38.8525C76.1459 38.2302 76.4648 37.5378 76.6826 36.7755C76.9005 36.0131 77.0094 35.2507 77.0094 34.4883C77.0094 33.9905 76.9471 33.5159 76.8227 33.0647C76.6982 32.598 76.4959 32.1934 76.2159 31.8511C75.9514 31.4933 75.6013 31.2132 75.1657 31.011C74.7456 30.7931 74.2322 30.6842 73.6254 30.6842C72.8319 30.6842 72.1317 30.8787 71.5249 31.2677C70.9337 31.6567 70.4281 32.1623 70.008 32.7847C69.6035 33.3914 69.2923 34.076 69.0745 34.8384C68.8722 35.6008 68.7711 36.3554 68.7711 37.1022C68.7711 37.6001 68.8333 38.0824 68.9578 38.5491C69.0822 39.0003 69.2767 39.4049 69.5412 39.7627C69.8057 40.105 70.148 40.3851 70.5681 40.6029C70.9882 40.8051 71.5016 40.9063 72.1084 40.9063Z" fill="white"/>
<path d="M57.8312 43.5665L58.9514 37.1953H53.6537L52.5335 43.5665H48.7994L51.5299 28.0234H55.264L54.1905 34.1613H59.4882L60.5617 28.0234H64.2958L61.5653 43.5665H57.8312Z" fill="white"/>
</svg>
