<svg width="640" height="640" viewBox="0 0 640 640" fill="none" xmlns="http://www.w3.org/2000/svg">
<g clip-path="url(#clip0_21_113)">
<rect width="640" height="640" fill="white"/>
<circle cx="320" cy="321" r="319.5" stroke="#00FF00" stroke-opacity="0.5"/>
<rect x="0.5" y="0.5" width="639" height="639" rx="167.5" stroke="#00FF00" stroke-opacity="0.5"/>
<path fill-rule="evenodd" clip-rule="evenodd" d="M371.898 584.759C377.755 583.563 383.103 588.745 381.958 594.616C376.165 624.295 373.413 650.952 373.029 655.483C372.341 663.583 366.922 665.729 360.97 659.964C359.377 658.418 357.316 656.414 354.853 654.02C343.934 643.403 325.123 625.111 303.996 605.065C298.371 599.728 302.838 589.833 310.589 590.053C313.137 590.125 315.693 590.162 318.26 590.162C336.633 590.162 354.57 588.301 371.898 584.759ZM566.395 450.514C560.275 450.364 556.294 443.773 558.933 438.244C575.522 403.482 584.81 364.561 584.81 323.47C584.81 291.48 579.183 260.803 568.86 232.381C566.758 226.598 571.413 220.362 577.562 220.456C593.109 220.689 606.352 218.212 615.522 215.192C630.569 210.235 646.106 187.634 655.771 173.577C657.145 171.578 658.402 169.751 659.519 168.176C662.714 163.666 669.021 162.965 674.39 162.368L674.427 162.363C679.146 161.839 685.491 165.022 692.004 168.291L692.792 168.687L693.151 168.866C696.963 170.773 701.083 173.328 698.91 177.624C689.464 196.293 680.48 221.874 677.026 246.995C674.879 262.606 672.74 291.087 674.951 313.602C678.868 353.473 691.076 382.053 710.077 381.55C730.033 381.02 740.361 366.926 745.738 355.37C747.564 351.445 754.264 351.552 759.617 351.638C760.547 351.654 761.437 351.667 762.255 351.659C767.83 351.606 771.343 352.229 771.824 356.073C772.223 359.262 772.958 372.337 772.811 375.571C772.61 379.956 771.057 382.665 766.654 382.173C763.793 381.858 760.312 381.347 756.601 380.804C752.082 380.143 747.224 379.434 742.738 378.958C740.618 378.733 740.599 379.825 740.572 381.328C740.546 382.914 740.508 384.963 737.982 386.408C729.619 391.188 723.534 399.111 721.828 404.662C720.234 409.843 718.296 411.17 714.716 410.392C698.5 406.863 681.109 408.276 668.206 414.316C652.766 421.547 641.67 436.165 631.283 450.6C628.374 454.644 625.923 456.156 620.474 455.302C612.167 454.005 591.246 451.129 566.395 450.514ZM117.883 499.349C122.123 504.183 119.661 512.178 113.571 514.23C95.4648 520.332 75.0598 532.061 47.1847 552.062C41.7439 555.965 35.862 555.773 31.3864 552.132L31.2287 552.006C25.3066 547.191 5.82932 531.355 -4.78224 525.299C-18.022 517.745 -48.9824 520.447 -59.3293 523.049C-68.1441 525.267 -81.5443 541.617 -86.6054 554.277C-94.0381 572.869 -89.1935 594.055 -78.1702 606.884C-64.3904 622.921 -38.7852 616.608 -24.4627 606.884C-20.7677 604.375 -16.0167 603.176 -11.5759 608.727C-4.41592 617.683 8.66869 630.951 16.3473 638.46C28.7208 650.556 48.2809 665.309 57.537 672.213C61.665 675.292 60.0608 679.62 57.7054 681.134C55.2002 682.744 38.7014 694.142 35.3273 698.642C32.8703 701.919 28.9641 701.63 24.2211 698.136C9.58308 687.364 -18.2412 686.016 -36.5554 695.782C-52.3377 704.198 -69.4997 719.854 -68.9944 741.57C-68.8767 746.634 -70.5959 747.814 -73.7079 749.146C-74.8255 749.627 -76.6462 750.483 -78.7878 751.492H-78.7931L-78.8172 751.505L-78.8252 751.508C-83.4479 753.683 -89.5598 756.558 -93.3937 757.901C-93.7253 758.016 -94.0488 758.134 -94.3643 758.246L-94.3669 758.249C-98.3773 759.688 -101.227 760.71 -104.331 755.881C-111.922 744.066 -123.156 729.246 -130.747 721.369C-133.618 718.391 -132.263 716.31 -130.519 713.64V713.638L-130.498 713.606C-130.359 713.392 -130.217 713.175 -130.073 712.953C-117.79 693.76 -111.55 677.897 -113.753 659.587C-116.446 637.194 -142.957 620.435 -161.662 610.846C-165.378 608.938 -166.097 608.235 -165.271 604.222C-161.17 584.259 -161.277 545.359 -163.621 516.592C-163.833 513.997 -162.974 511.689 -161.213 506.949V506.946C-160.811 505.868 -160.362 504.664 -159.87 503.302C-159.044 501.021 -157.617 500.146 -155.184 500.018C-149.245 499.707 -130.292 498.102 -117.836 494.702C-105.802 491.42 -86.4236 479.38 -80.3144 463.656C-72.4353 443.369 -75.3308 409.338 -81.4855 394.344C-82.7474 391.271 -84.9104 386.79 -86.4343 383.628C-86.9343 382.59 -87.3647 381.694 -87.6749 381.036C-89.263 377.663 -89.394 374.472 -85.3301 372.594C-84.0308 371.995 -82.6779 371.433 -81.3117 370.866C-77.2638 369.191 -73.077 367.455 -69.7055 364.465C-68.8206 363.681 -67.9222 362.868 -67.0132 362.044L-67.0105 362.041C-60.8505 356.464 -54.1451 350.389 -47.2018 349.297C-39.2317 348.048 -33.553 348.177 -32.5129 352.895C-30.1682 363.526 -21.1661 380.055 -15.0115 387.29C-14.5863 387.791 -14.1639 388.296 -13.7415 388.804C-7.9478 395.762 -1.92146 403.003 16.8687 397.611C27.5925 394.532 37.8752 390.787 46.8746 385.921C52.048 383.123 58.946 385.739 60.4378 391.429C71.0895 431.984 91.0454 468.766 117.883 499.349ZM168.719 102.67C162.869 106.646 154.536 102.061 154.768 94.9906C155.129 84.0418 154.806 73.0555 153.576 62.377C149.164 24.007 137.9 -15.4947 130.297 -41.1758C128.12 -48.5192 125.131 -66.4695 123.77 -79.524C122.757 -89.2642 128.687 -96.0791 134.644 -98.5623C141.168 -101.282 148.94 -104.665 155.576 -107.809C158.618 -109.251 162.746 -111.552 166.826 -113.827C171.647 -116.513 176.4 -119.164 179.226 -120.32C182.518 -121.667 190.822 -120.88 197.166 -119.776C202.719 -118.81 204.225 -115.451 205.992 -111.5L205.995 -111.496C206.217 -111.001 206.441 -110.496 206.682 -109.985C222.448 -76.2605 245.553 -36.8243 260.231 -12.6185C270.709 4.65849 298.977 47.1126 303.18 53.199C304.341 54.8792 303.202 57.1901 301.167 57.3185C252.264 60.4162 206.944 76.7043 168.719 102.67ZM552.281 217.706C561.612 219.608 568.59 210.377 564.7 201.678C525.75 114.585 437.679 58.8246 336.526 57.3801C334.395 57.348 332.267 57.3372 330.141 57.348C319.786 57.3988 314.236 69.0136 320.342 77.381C340.87 105.503 364.858 135.421 384.854 152.803C437.422 198.502 480.513 202.526 498.611 203.101C508.089 203.403 514.315 204.275 522.454 207.988C532.627 212.629 542.666 215.748 552.281 217.706ZM130.976 129.696C139.515 122.118 151.782 129.198 149.723 140.428C145.02 166.055 137.943 188.295 132.037 201.549C120.474 227.502 105.94 249.86 82.3454 262.368C77.1559 265.121 72.9129 267.156 67.0309 269.874C62.9671 271.749 60.772 277.174 62.3414 283.632C63.7478 289.418 67.0336 296.068 69.218 299.58C77.9687 313.65 81.7198 340.387 75.1561 356.803C74.5999 358.194 73.9823 359.545 73.3112 360.856C68.7849 369.67 57.1252 366.054 55.4409 356.285C55.3794 355.931 55.3206 355.578 55.2591 355.223C39.1132 259.725 72.2258 181.842 130.976 129.696ZM140.331 527.378C133.24 520.216 137.347 508.682 147.421 508.743C155.052 508.789 162.885 509.597 171.371 510.94C205.198 516.284 239.805 544.966 283.952 586.19C287.072 589.103 284.973 594.226 280.714 593.94C225.223 590.213 177.612 565.025 140.331 527.378ZM391.198 556.099C388.265 565.964 397.644 574.666 407.288 571.082C464.578 549.794 510.353 516.974 541.247 469.809C546.808 461.321 540.311 450.624 530.207 451.498C520.946 452.298 511.698 453.59 502.824 455.53C457.573 465.424 418.402 494.462 401.997 527.501C397.925 535.699 394.337 545.546 391.198 556.099ZM85.65 -27.2567C81.2894 -27.2561 77.2521 -32.688 79.1745 -37.9775C80.1985 -40.7959 83.2865 -47.7177 86.6472 -51.8025C89.0455 -56.8812 93.6922 -56.5749 96.6599 -54.624C100.141 -52.3351 102.595 -49.6657 105.619 -46.377C106.226 -45.7192 106.852 -45.035 107.515 -44.3258C111.605 -39.9525 111.747 -31.7705 103.849 -30.0775C103.504 -30.0031 103.13 -29.922 102.732 -29.8359C98.2587 -28.8665 90.8315 -27.2577 85.65 -27.2567ZM705.925 252.2C701.425 257.406 700.492 262.175 703.276 266.351C706.222 270.773 718.007 279.913 723.312 280.208C729.608 280.558 734.509 278.145 739.225 274.018C739.468 273.801 739.749 273.56 740.059 273.293C744.724 269.261 756.352 259.222 761.325 245.125C765.905 232.14 773.517 223.706 780.289 216.2L780.292 216.197C781.364 215.01 782.412 213.846 783.425 212.693C792.208 202.691 806.704 189.108 816.725 179.967C826.743 170.827 837.929 169.179 852.38 169.353C867.743 169.537 877.796 169.016 880.373 166.699C885.725 161.89 891.327 155.058 894.511 150.203C896.046 147.859 895.393 145.377 894.524 142.084C893.845 139.497 893.032 136.41 893.046 132.499C893.075 123.68 891.92 122.99 883.282 122.243C874.167 121.454 860.631 117.757 852.38 115.401C840.009 111.864 830.868 108.323 824.976 105.669C819.08 103.018 815.252 103.607 810.241 108.323C806.025 112.295 801.389 118.98 797.921 123.988L797.916 123.993C797.266 124.932 796.654 125.812 796.098 126.604C795.106 128.008 794.617 129.838 794.026 132.053C793.101 135.53 791.922 139.955 788.141 145.176C780.401 155.871 754.841 189.402 737.752 208.86C729.223 218.57 723.183 227.66 717.841 235.696C713.729 241.885 710.029 247.452 705.925 252.2ZM-218.909 602.858C-221.08 595.502 -218.305 588.515 -215.733 583.716C-214.543 581.493 -212.96 580.083 -209.886 580.206C-209.295 580.228 -208.648 580.254 -207.963 580.278L-207.683 580.289L-207.632 580.292H-207.61L-207.608 580.294C-203.849 580.436 -199.183 580.615 -197.352 580.789C-194.646 581.049 -193.606 582.017 -192.759 583.967C-192.558 584.425 -192.339 584.903 -192.106 585.409C-190.686 588.512 -188.855 592.516 -189.002 597.275C-189.154 602.27 -190.531 625.622 -191.237 632.224C-191.796 637.427 -194.678 637.657 -197.745 637.901C-198.197 637.935 -198.651 637.973 -199.103 638.026C-205.079 638.719 -207.298 636.095 -208.543 633.607C-209.787 631.117 -216.909 609.626 -218.909 602.858ZM814.134 304.336C808.429 301.728 799.74 301.653 797.055 308.974C792.777 320.645 790.957 327.528 790.467 333.873C789.978 340.221 791.2 344.613 798.518 341.93C805.001 339.552 822.198 330.473 829.606 326.563L830.946 325.854C831.325 325.656 831.66 325.479 831.943 325.329C837.066 322.646 835.603 313.856 832.186 312.15C830.967 311.537 828.935 310.692 826.302 309.598C823.04 308.242 818.856 306.497 814.134 304.336ZM886.838 270.406C882.934 263.085 889.845 255.857 895.866 253.565C898.781 252.452 901.695 252.131 905.598 251.703C908.555 251.376 912.082 250.989 916.603 250.146C920.547 249.413 924.455 248.297 928.059 247.273C934.04 245.569 939.176 244.106 942.222 245.021C944.486 245.7 944.753 247.115 945.074 248.803C945.443 250.753 945.879 253.067 949.542 255.028C956.373 258.69 957.592 267.721 950.761 270.896C943.93 274.068 922.704 283.099 912.945 286.274C903.184 289.447 897.329 288.957 895.377 285.541C894.891 284.685 894.356 283.771 893.768 282.762C892.006 279.742 889.765 275.898 886.838 270.406ZM934.73 85.1198C931.214 86.155 930.575 88.8086 931.169 92.6633C931.76 96.518 936.348 120.44 937.724 126.328C938.904 131.36 942.647 132.751 945.32 131.681C948.055 130.587 950.98 128.674 952.916 127.184C954.309 126.114 956.287 123.172 956.876 120.226C958.033 114.43 958.969 108.927 959.228 107.277C960.084 101.817 966.896 105.573 968.752 106.635C970.998 107.919 972.308 107.897 973.84 105.412C975.596 102.566 984.264 87.4738 988.007 72.8094C988.865 69.4443 990.296 69.4684 992.253 69.5032C993.654 69.5272 995.325 69.5567 997.25 68.3529C1002.45 65.1028 1011.63 60.2209 1019.14 56.5401C1024.38 53.971 1030.92 49.4179 1039.57 43.16C1046.41 38.2182 1066.86 21.6009 1083.65 7.96239C1093.41 0.0376968 1101.92 -6.88307 1105.81 -9.92107C1113.95 -16.2833 1120.36 -16.1546 1126.89 -16.0238C1127.82 -16.0054 1128.75 -15.9866 1129.69 -15.9866C1135 -15.9866 1147.57 -15.6886 1150.19 -15.6159C1154.63 -15.4923 1157.23 -16.6043 1158.75 -19.1124L1159.35 -20.0957L1159.79 -20.8142C1161.48 -23.5705 1162.37 -25.0153 1163.79 -27.7106C1164.39 -28.8363 1165.75 -32.2956 1162.54 -34.5196C1160.12 -36.1954 1160.01 -39.1559 1159.87 -42.6176C1159.86 -43.0804 1159.84 -43.5544 1159.82 -44.0332C1159.52 -50.168 1159.32 -51.8172 1153.27 -54.1647C1152.54 -54.4494 1151.78 -54.7388 1151.01 -55.0352L1151.01 -55.0376C1142.76 -58.2045 1132.56 -62.1205 1124.97 -68.6261C1120.3 -72.6319 1118.73 -76.168 1117.51 -78.9168C1116.56 -81.0509 1115.82 -82.7105 1114.01 -83.747C1109.86 -86.119 1101.41 -85.3002 1095.97 -82.5821C1090.86 -80.021 1084.98 -68.1261 1082.27 -61.9485C1080.17 -57.1921 1073.87 -49.9639 1067.94 -44.6511C1065.06 -42.0681 1058.92 -36.3988 1051.99 -29.9972L1051.98 -29.9916C1041.17 -20.0074 1028.43 -8.24437 1023.11 -3.63133C1015.41 3.05296 1009.07 11.1199 1004.27 19.8257C1000.62 26.4407 997.45 32.3934 995.261 36.507L995.258 36.5084C994.047 38.7843 993.135 40.4971 992.608 41.4475C991.127 44.1161 984.371 44.5516 981.267 43.4813C981.05 43.4067 980.828 43.3291 980.604 43.2502C976.27 41.7313 970.492 39.7061 968.803 47.5978C967.025 55.8994 962.974 71.0975 960.512 76.7711C958.45 81.5273 955.165 83.0841 946.606 82.5491C943.09 82.3298 940.091 83.3436 937.233 84.3093C936.388 84.5955 935.559 84.8764 934.73 85.1198ZM354.578 481.408H341.317L342.001 477.812L359.968 458.167H363.048L358.856 478.198H362.877L362.235 481.408H358.214L356.674 488.512H353.038L354.578 481.408ZM345.466 478.198H355.22L358.086 464.459H358L345.466 478.198ZM321.652 464.245C321.112 465.499 320.754 466.912 320.583 468.482H324.433C324.492 467.54 324.676 466.642 324.989 465.786C325.304 464.9 325.732 464.146 326.272 463.517C326.844 462.862 327.529 462.348 328.326 461.976C329.125 461.578 330.037 461.377 331.063 461.377C332.633 461.377 333.873 461.819 334.785 462.704C335.699 463.589 336.154 464.844 336.154 466.47C336.154 467.241 336.055 467.926 335.855 468.525C335.657 469.124 335.371 469.68 334.999 470.194C334.657 470.678 334.245 471.149 333.758 471.606C333.274 472.034 332.761 472.462 332.218 472.89C331.221 473.631 330.181 474.316 329.096 474.945C328.013 475.573 326.943 476.216 325.887 476.871C324.834 477.526 323.821 478.211 322.85 478.925C321.882 479.639 321.011 480.453 320.241 481.365C319.5 482.277 318.872 483.32 318.358 484.489C317.875 485.631 317.575 486.972 317.46 488.512H336.753L337.437 485.302H321.652C321.853 484.759 322.139 484.246 322.508 483.762C322.879 483.248 323.278 482.777 323.706 482.349C324.163 481.892 324.633 481.48 325.117 481.108C325.631 480.736 326.131 480.394 326.615 480.081C327.47 479.538 328.398 478.997 329.395 478.454C330.395 477.885 331.392 477.299 332.39 476.7C333.389 476.071 334.344 475.416 335.256 474.731C336.17 474.017 336.967 473.246 337.651 472.42C338.365 471.564 338.935 470.635 339.362 469.638C339.79 468.61 340.004 467.484 340.004 466.256C340.004 465.002 339.79 463.873 339.362 462.875C338.935 461.877 338.336 461.035 337.566 460.35C336.825 459.636 335.927 459.095 334.871 458.724C333.844 458.352 332.718 458.167 331.491 458.167C329.866 458.167 328.411 458.411 327.128 458.895C325.845 459.379 324.748 460.08 323.834 460.992C322.922 461.878 322.195 462.961 321.652 464.245ZM298.825 477.855C298.825 480.281 299.194 482.221 299.937 483.676C300.678 485.102 301.948 485.816 303.745 485.816C304.857 485.816 305.854 485.503 306.739 484.874C307.621 484.246 308.391 483.449 309.049 482.478C309.704 481.507 310.247 480.437 310.674 479.268C311.129 478.069 311.487 476.914 311.744 475.801C312.027 474.659 312.228 473.631 312.343 472.719C312.485 471.778 312.557 471.093 312.557 470.665V468.824C312.583 468.14 312.57 467.455 312.514 466.77C312.485 466.085 312.386 465.414 312.215 464.758C312.07 464.103 311.83 463.531 311.487 463.046C311.145 462.533 310.688 462.134 310.118 461.848C309.546 461.535 308.819 461.377 307.937 461.377C306.851 461.377 305.867 461.69 304.985 462.319C304.1 462.918 303.317 463.718 302.632 464.716C301.975 465.687 301.405 466.783 300.921 468.011C300.435 469.239 300.036 470.464 299.723 471.692C299.408 472.92 299.181 474.075 299.039 475.159C298.895 476.242 298.825 477.141 298.825 477.855ZM294.975 477.256C294.975 476.114 295.074 474.859 295.275 473.49C295.502 472.091 295.844 470.694 296.301 469.295C296.756 467.869 297.341 466.484 298.055 465.144C298.766 463.803 299.608 462.618 300.579 461.591C301.547 460.564 302.675 459.737 303.958 459.109C305.242 458.48 306.667 458.167 308.236 458.167C310.888 458.167 312.912 459.066 314.311 460.864C315.706 462.661 316.407 465.585 316.407 469.638C316.407 470.579 316.305 471.705 316.107 473.019C315.936 474.332 315.65 475.715 315.252 477.17C314.851 478.596 314.311 480.025 313.626 481.45C312.968 482.849 312.156 484.104 311.188 485.217C310.217 486.33 309.092 487.242 307.808 487.956C306.525 488.641 305.041 488.983 303.359 488.983C301.761 488.983 300.421 488.684 299.338 488.084C298.282 487.485 297.427 486.659 296.772 485.602C296.114 484.545 295.643 483.304 295.36 481.878C295.103 480.453 294.975 478.912 294.975 477.256ZM274.113 464.245C273.57 465.499 273.215 466.912 273.043 468.482H276.893C276.95 467.54 277.137 466.642 277.449 465.786C277.762 464.9 278.19 464.146 278.733 463.517C279.302 462.862 279.987 462.348 280.786 461.976C281.586 461.578 282.497 461.377 283.524 461.377C285.093 461.377 286.334 461.819 287.246 462.704C288.157 463.589 288.615 464.844 288.615 466.47C288.615 467.241 288.516 467.926 288.315 468.525C288.115 469.124 287.831 469.68 287.46 470.194C287.117 470.678 286.703 471.149 286.219 471.606C285.735 472.034 285.222 472.462 284.679 472.89C283.682 473.631 282.639 474.316 281.556 474.945C280.473 475.573 279.404 476.216 278.348 476.871C277.292 477.526 276.281 478.211 275.311 478.925C274.34 479.639 273.471 480.453 272.701 481.365C271.961 482.277 271.332 483.32 270.819 484.489C270.335 485.631 270.036 486.972 269.921 488.512H289.213L289.898 485.302H274.113C274.313 484.759 274.597 484.246 274.968 483.762C275.34 483.248 275.738 482.777 276.166 482.349C276.623 481.892 277.094 481.48 277.578 481.108C278.091 480.736 278.591 480.394 279.075 480.081C279.931 479.538 280.858 478.997 281.856 478.454C282.853 477.885 283.853 477.299 284.85 476.7C285.847 476.071 286.804 475.416 287.716 474.731C288.628 474.017 289.427 473.246 290.112 472.42C290.826 471.564 291.395 470.635 291.823 469.638C292.251 468.61 292.464 467.484 292.464 466.256C292.464 465.002 292.251 463.873 291.823 462.875C291.395 461.877 290.796 461.035 290.026 460.35C289.286 459.636 288.387 459.095 287.331 458.724C286.305 458.352 285.179 458.167 283.952 458.167C282.326 458.167 280.872 458.411 279.588 458.895C278.305 459.379 277.206 460.08 276.295 460.992C275.383 461.878 274.656 462.961 274.113 464.245ZM476.396 395.875C476.396 398.951 475.861 402.006 474.797 405.042C473.73 408.035 472.193 410.723 470.185 413.102C468.217 415.48 465.776 417.408 462.867 418.885C459.996 420.321 456.737 421.038 453.09 421.038C450.015 421.038 447.328 420.567 445.034 419.623C442.778 418.679 440.893 417.408 439.377 415.809C437.901 414.209 436.794 412.385 436.056 410.333C435.358 408.241 435.011 406.088 435.011 403.873C435.011 400.304 435.564 396.982 436.671 393.906C437.818 390.829 439.395 388.163 441.406 385.907C443.454 383.61 445.895 381.825 448.724 380.555C451.592 379.241 454.769 378.586 458.255 378.586C461.33 378.586 463.993 379.038 466.249 379.94C468.543 380.841 470.431 382.093 471.907 383.693C473.423 385.252 474.551 387.076 475.289 389.168C476.027 391.26 476.396 393.496 476.396 395.875ZM453.643 413.286C455.734 413.286 457.579 412.794 459.178 411.81C460.776 410.785 462.108 409.472 463.175 407.872C464.281 406.232 465.121 404.405 465.696 402.396C466.268 400.387 466.557 398.376 466.557 396.367C466.557 395.053 466.391 393.804 466.065 392.614C465.736 391.383 465.204 390.316 464.466 389.414C463.768 388.47 462.846 387.732 461.699 387.2C460.592 386.624 459.239 386.338 457.64 386.338C455.549 386.338 453.705 386.852 452.106 387.876C450.547 388.901 449.216 390.236 448.109 391.875C447.042 393.475 446.221 395.281 445.649 397.29C445.114 399.299 444.85 401.289 444.85 403.258C444.85 404.571 445.013 405.842 445.342 407.072C445.668 408.262 446.181 409.327 446.879 410.271C447.574 411.173 448.478 411.911 449.585 412.486C450.692 413.019 452.044 413.286 453.643 413.286ZM409.831 379.324H397.471L390.276 420.3H403.743C407.473 420.3 410.938 419.768 414.135 418.7C417.373 417.593 420.162 416.033 422.498 414.024C424.875 412.016 426.72 409.573 428.033 406.703C429.385 403.79 430.062 400.55 430.062 396.982C430.062 394.152 429.57 391.651 428.586 389.476C427.602 387.301 426.207 385.455 424.405 383.939C422.64 382.422 420.509 381.272 418.009 380.493C415.549 379.715 412.822 379.324 409.831 379.324ZM416.042 408.487C413.293 411.154 409.44 412.508 404.481 412.548H401.406L405.895 387.076H409.093C412.413 387.076 415.098 387.938 417.148 389.66C419.196 391.343 420.223 393.906 420.223 397.351C420.223 402.067 418.827 405.78 416.042 408.487ZM381.985 420.3H372.146L379.341 379.324H389.18L381.985 420.3ZM340.702 412.302H356.014L357.243 420.3H367.328L359.211 379.324H348.327L325.943 420.3H336.766L340.702 412.302ZM354.845 404.55H344.514L352.508 387.999L354.845 404.55ZM289.267 420.3L296.462 379.324H306.3L302.857 399.012L317.615 379.324H329.729L313.372 400.427L324.379 420.3H313.003L302.672 400.058L299.106 420.3H289.267ZM257.729 379.324L250.534 420.3H260.373L263.94 400.058L274.271 420.3H285.647L274.64 400.427L290.997 379.324H278.883L264.124 399.012L267.568 379.324H257.729ZM248.591 395.875C248.591 398.951 248.056 402.006 246.992 405.042C245.925 408.035 244.388 410.723 242.38 413.102C240.412 415.48 237.971 417.408 235.062 418.885C232.191 420.321 228.931 421.038 225.285 421.038C222.21 421.038 219.523 420.567 217.229 419.623C214.973 418.679 213.088 417.408 211.572 415.809C210.096 414.209 208.989 412.385 208.251 410.333C207.553 408.241 207.206 406.088 207.206 403.873C207.206 400.304 207.759 396.982 208.866 393.906C210.013 390.829 211.59 388.163 213.601 385.907C215.649 383.61 218.09 381.825 220.919 380.555C223.787 379.241 226.964 378.586 230.45 378.586C233.525 378.586 236.188 379.038 238.444 379.94C240.738 380.841 242.626 382.093 244.102 383.693C245.617 385.252 246.746 387.076 247.484 389.168C248.222 391.26 248.591 393.496 248.591 395.875ZM225.838 413.286C227.929 413.286 229.774 412.794 231.373 411.81C232.971 410.785 234.303 409.472 235.37 407.872C236.476 406.232 237.316 404.405 237.891 402.396C238.463 400.387 238.752 398.376 238.752 396.367C238.752 395.053 238.586 393.804 238.26 392.614C237.931 391.383 237.399 390.316 236.661 389.414C235.963 388.47 235.041 387.732 233.894 387.2C232.787 386.624 231.434 386.338 229.835 386.338C227.744 386.338 225.9 386.852 224.301 387.876C222.742 388.901 221.411 390.236 220.304 391.875C219.237 393.475 218.416 395.281 217.844 397.29C217.309 399.299 217.045 401.289 217.045 403.258C217.045 404.571 217.208 405.842 217.537 407.072C217.863 408.262 218.376 409.327 219.074 410.271C219.769 411.173 220.673 411.911 221.78 412.486C222.886 413.019 224.239 413.286 225.838 413.286ZM191.169 403.504L188.218 420.3H198.057L205.251 379.324H195.412L192.584 395.505H178.625L181.453 379.324H171.615L164.42 420.3H174.259L177.211 403.504H191.169ZM463.854 304.606C466.484 304.606 468.623 305.32 470.27 306.746C471.92 308.129 472.743 309.935 472.743 312.163C472.743 314.391 472.075 316.221 470.738 317.647C469.447 319.073 467.797 320.209 465.792 321.057C463.787 321.905 461.581 322.529 459.175 322.93C456.769 323.331 454.453 323.599 452.224 323.732C452.09 324.535 452.023 325.359 452.023 326.207C452.023 328.301 452.515 330.04 453.493 331.423C454.475 332.806 456.213 333.496 458.707 333.496C460.268 333.496 461.827 333.274 463.386 332.827C464.947 332.338 466.394 331.712 467.73 330.955L468.867 335.101C467.308 335.992 465.616 336.706 463.787 337.241C462.006 337.776 460.111 338.044 458.105 338.044C456.146 338.044 454.429 337.731 452.959 337.107C451.488 336.484 450.264 335.615 449.283 334.499C448.347 333.384 447.636 332.092 447.144 330.621C446.654 329.104 446.408 327.477 446.408 325.739C446.408 323.064 446.809 320.456 447.612 317.914C448.414 315.373 449.574 313.121 451.087 311.16C452.603 309.154 454.429 307.57 456.568 306.412C458.753 305.208 461.18 304.606 463.854 304.606ZM463.118 309.02C461.782 309.02 460.557 309.333 459.442 309.956C458.33 310.537 457.327 311.315 456.434 312.297C455.59 313.233 454.876 314.324 454.296 315.574C453.718 316.777 453.293 317.981 453.026 319.185C454.587 319.139 456.191 319.006 457.838 318.784C459.533 318.516 461.07 318.136 462.45 317.647C463.832 317.112 464.969 316.443 465.859 315.641C466.752 314.793 467.196 313.747 467.196 312.497C467.196 311.473 466.819 310.646 466.059 310.023C465.348 309.354 464.367 309.02 463.118 309.02ZM441.069 305.208C439.599 304.807 437.973 304.606 436.19 304.606C433.473 304.606 431.022 305.163 428.837 306.278C426.699 307.348 424.872 308.819 423.356 310.692C421.886 312.519 420.75 314.659 419.948 317.112C419.191 319.565 418.811 322.127 418.811 324.802C418.811 326.629 419.079 328.347 419.613 329.952C420.148 331.557 420.95 332.961 422.02 334.165C423.089 335.369 424.426 336.326 426.03 337.041C427.634 337.709 429.484 338.044 431.578 338.044C433.361 338.044 435.054 337.822 436.658 337.375C438.262 336.974 439.732 336.393 441.069 335.636L439.866 331.356C438.754 331.937 437.551 332.426 436.257 332.827C434.965 333.183 433.607 333.362 432.179 333.362C430.709 333.362 429.484 333.14 428.503 332.694C427.567 332.204 426.811 331.578 426.231 330.821C425.696 330.019 425.295 329.104 425.027 328.079C424.806 327.009 424.693 325.894 424.693 324.736C424.693 322.596 424.939 320.611 425.429 318.784C425.963 316.911 426.723 315.285 427.701 313.902C428.682 312.476 429.885 311.361 431.31 310.558C432.781 309.756 434.452 309.354 436.323 309.354C437.66 309.354 438.93 309.534 440.133 309.889C441.337 310.202 442.451 310.625 443.475 311.16L444.879 306.746C443.855 306.123 442.585 305.609 441.069 305.208ZM384.391 337.375L390.073 305.275H395.754L394.417 313.032C395.04 311.874 395.73 310.78 396.489 309.756C397.246 308.731 398.094 307.838 399.029 307.081C399.965 306.324 401.01 305.722 402.171 305.275C403.328 304.828 404.62 304.606 406.047 304.606C407.427 304.606 408.63 304.895 409.657 305.476C410.726 306.011 411.617 306.792 412.331 307.816C413.042 308.798 413.576 309.978 413.935 311.361C414.29 312.698 414.469 314.191 414.469 315.841C414.469 316.51 414.424 317.246 414.336 318.048C414.29 318.805 414.202 319.565 414.068 320.322L411.061 337.375H405.179L408.12 320.723C408.387 319.206 408.521 317.714 408.521 316.242C408.521 314.282 408.186 312.653 407.518 311.361C406.892 310.023 405.78 309.354 404.176 309.354C403.107 309.354 402.058 309.643 401.034 310.224C400.053 310.804 399.096 311.583 398.16 312.564C397.267 313.546 396.423 314.683 395.62 315.975C394.818 317.267 394.059 318.604 393.348 319.987L390.273 337.375H384.391ZM379.424 306.746C377.774 305.32 375.635 304.606 373.007 304.606C370.333 304.606 367.903 305.208 365.721 306.412C363.583 307.57 361.754 309.154 360.241 311.16C358.725 313.121 357.567 315.373 356.765 317.914C355.963 320.456 355.562 323.064 355.562 325.739C355.562 327.477 355.805 329.104 356.297 330.621C356.786 332.092 357.5 333.384 358.436 334.499C359.414 335.615 360.642 336.484 362.112 337.107C363.583 337.731 365.296 338.044 367.259 338.044C369.264 338.044 371.157 337.776 372.94 337.241C374.766 336.706 376.459 335.992 378.02 335.101L376.884 330.955C375.547 331.712 374.098 332.338 372.539 332.827C370.978 333.274 369.419 333.496 367.86 333.496C365.363 333.496 363.625 332.806 362.647 331.423C361.666 330.04 361.176 328.301 361.176 326.207C361.176 325.359 361.243 324.535 361.377 323.732C363.604 323.599 365.922 323.331 368.328 322.93C370.734 322.529 372.94 321.905 374.945 321.057C376.951 320.209 378.598 319.073 379.892 317.647C381.228 316.221 381.897 314.391 381.897 312.163C381.897 309.935 381.071 308.129 379.424 306.746ZM368.596 309.956C369.708 309.333 370.935 309.02 372.272 309.02C373.518 309.02 374.499 309.354 375.213 310.023C375.969 310.646 376.349 311.473 376.349 312.497C376.349 313.747 375.903 314.793 375.012 315.641C374.119 316.443 372.983 317.112 371.603 317.647C370.221 318.136 368.684 318.516 366.991 318.784C365.342 319.006 363.738 319.139 362.179 319.185C362.446 317.981 362.869 316.777 363.449 315.574C364.026 314.324 364.74 313.233 365.588 312.297C366.478 311.315 367.481 310.537 368.596 309.956ZM354.474 310.424C354.294 310.379 354.094 310.357 353.872 310.357H353.27C350.91 310.357 348.792 311.139 346.921 312.698C345.095 314.258 343.512 316.422 342.175 319.185L338.967 337.375H333.085L338.766 305.275H344.514L343.044 313.634C344.068 310.826 345.405 308.707 347.054 307.281C348.704 305.81 350.685 305.074 353.003 305.074C353.359 305.074 353.738 305.096 354.139 305.141C354.54 305.141 354.853 305.187 355.075 305.275L354.474 310.424ZM327.449 306.746C325.802 305.32 323.663 304.606 321.032 304.606C318.358 304.606 315.931 305.208 313.746 306.412C311.608 307.57 309.781 309.154 308.266 311.16C306.752 313.121 305.592 315.373 304.79 317.914C303.988 320.456 303.587 323.064 303.587 325.739C303.587 327.477 303.833 329.104 304.322 330.621C304.814 332.092 305.525 333.384 306.461 334.499C307.442 335.615 308.667 336.484 310.137 337.107C311.608 337.731 313.324 338.044 315.284 338.044C317.289 338.044 319.185 337.776 320.965 337.241C322.794 336.706 324.486 335.992 326.045 335.101L324.909 330.955C323.572 331.712 322.126 332.338 320.564 332.827C319.005 333.274 317.447 333.496 315.885 333.496C313.391 333.496 311.653 332.806 310.672 331.423C309.693 330.04 309.201 328.301 309.201 326.207C309.201 325.359 309.268 324.535 309.402 323.732C311.632 323.599 313.947 323.331 316.353 322.93C318.76 322.529 320.965 321.905 322.97 321.057C324.976 320.209 326.625 319.073 327.917 317.647C329.253 316.221 329.922 314.391 329.922 312.163C329.922 309.935 329.098 308.129 327.449 306.746ZM316.621 309.956C317.735 309.333 318.96 309.02 320.297 309.02C321.545 309.02 322.527 309.354 323.238 310.023C323.997 310.646 324.374 311.473 324.374 312.497C324.374 313.747 323.93 314.793 323.037 315.641C322.147 316.443 321.011 317.112 319.628 317.647C318.249 318.136 316.712 318.516 315.016 318.784C313.37 319.006 311.765 319.139 310.204 319.185C310.471 317.981 310.896 316.777 311.474 315.574C312.054 314.324 312.768 313.233 313.613 312.297C314.506 311.315 315.508 310.537 316.621 309.956ZM268.049 346.269C268.76 346.491 269.52 346.671 270.322 346.804C271.078 346.984 271.926 347.072 272.862 347.072C274.599 347.072 276.046 346.692 277.206 345.935C278.318 345.178 279.254 344.129 280.014 342.792C280.77 341.454 281.372 339.895 281.818 338.111C282.307 336.326 282.73 334.432 283.088 332.426L287.032 310.023H280.014L280.816 305.275H287.901L288.235 303.402C289.08 298.721 290.596 295.198 292.78 292.836C294.962 290.429 298.082 289.225 302.138 289.225C304.988 289.225 307.418 289.76 309.423 290.83L308.287 295.177C307.351 294.776 306.415 294.487 305.48 294.307C304.544 294.085 303.517 293.973 302.405 293.973C300.042 293.973 298.215 294.709 296.924 296.18C295.63 297.606 294.673 300.013 294.05 303.402L293.716 305.275H303.942L303.14 310.023H292.914L288.97 332.493C288.524 335.123 287.943 337.597 287.232 339.916C286.518 342.235 285.561 344.284 284.358 346.069C283.198 347.853 281.727 349.257 279.947 350.282C278.209 351.306 276.046 351.82 273.463 351.82C272.436 351.82 271.346 351.732 270.188 351.552C269.028 351.373 268.025 351.151 267.18 350.884L268.049 346.269ZM249.521 305.275L243.84 337.375H249.721L252.796 319.987C253.51 318.604 254.267 317.267 255.069 315.975C255.871 314.683 256.718 313.546 257.609 312.564C258.544 311.583 259.504 310.804 260.483 310.224C261.509 309.643 262.555 309.354 263.624 309.354C265.228 309.354 266.343 310.023 266.966 311.361C267.635 312.653 267.969 314.282 267.969 316.242C267.969 317.714 267.835 319.206 267.568 320.723L264.627 337.375H270.509L273.517 320.322C273.65 319.565 273.741 318.805 273.784 318.048C273.875 317.246 273.918 316.51 273.918 315.841C273.918 314.191 273.741 312.698 273.383 311.361C273.027 309.978 272.493 308.798 271.779 307.816C271.068 306.792 270.175 306.011 269.105 305.476C268.081 304.895 266.878 304.606 265.496 304.606C264.071 304.606 262.779 304.828 261.619 305.275C260.461 305.722 259.413 306.324 258.478 307.081C257.542 307.838 256.697 308.731 255.938 309.756C255.181 310.78 254.491 311.874 253.866 313.032L255.202 305.275H249.521ZM240.861 317.714C240.861 320.121 240.46 322.55 239.658 325.003C238.856 327.411 237.696 329.596 236.182 331.557C234.712 333.475 232.883 335.034 230.701 336.238C228.517 337.442 226.044 338.044 223.282 338.044C221.277 338.044 219.494 337.731 217.935 337.107C216.419 336.439 215.128 335.524 214.058 334.366C212.989 333.207 212.187 331.846 211.652 330.286C211.117 328.681 210.85 326.942 210.85 325.07C210.85 322.44 211.227 319.899 211.986 317.446C212.788 314.95 213.924 312.765 215.395 310.892C216.865 308.974 218.67 307.46 220.809 306.345C222.991 305.187 225.464 304.606 228.228 304.606C230.233 304.606 232.014 304.962 233.576 305.676C235.134 306.345 236.45 307.281 237.519 308.485C238.631 309.689 239.458 311.093 239.992 312.698C240.57 314.258 240.861 315.929 240.861 317.714ZM223.616 333.496C225.397 333.496 227.001 333.049 228.429 332.159C229.854 331.222 231.036 330.019 231.971 328.547C232.95 327.076 233.685 325.426 234.177 323.599C234.712 321.726 234.979 319.875 234.979 318.048C234.979 316.844 234.821 315.707 234.511 314.637C234.244 313.522 233.819 312.564 233.241 311.762C232.661 310.959 231.905 310.336 230.969 309.889C230.076 309.4 229.006 309.154 227.76 309.154C226.111 309.154 224.595 309.6 223.215 310.491C221.878 311.339 220.718 312.497 219.74 313.969C218.804 315.394 218.069 317.066 217.534 318.984C216.999 320.857 216.732 322.842 216.732 324.936C216.732 327.566 217.288 329.663 218.403 331.222C219.56 332.739 221.298 333.496 223.616 333.496ZM204.091 292.702C202.043 292.256 199.971 292.034 197.875 292.034C193.864 292.034 190.322 292.724 187.247 294.107C184.173 295.49 181.59 297.384 179.494 299.791C177.446 302.153 175.884 304.941 174.815 308.151C173.745 311.315 173.211 314.726 173.211 318.382C173.211 321.146 173.679 323.732 174.614 326.14C175.55 328.547 176.887 330.642 178.625 332.426C180.363 334.21 182.48 335.615 184.975 336.639C187.515 337.664 190.367 338.177 193.53 338.177C195.535 338.177 197.474 338.022 199.345 337.709C201.217 337.396 202.955 336.928 204.559 336.305L203.957 331.757C202.444 332.292 200.861 332.694 199.212 332.961C197.607 333.183 196.003 333.296 194.399 333.296C191.859 333.296 189.632 332.94 187.715 332.226C185.801 331.469 184.218 330.42 182.969 329.082C181.724 327.745 180.788 326.161 180.162 324.334C179.539 322.462 179.226 320.389 179.226 318.115C179.226 315.039 179.627 312.209 180.43 309.622C181.277 307.035 182.502 304.807 184.106 302.934C185.71 301.062 187.672 299.591 189.988 298.521C192.351 297.451 195.046 296.916 198.075 296.916C199.904 296.916 201.685 297.116 203.423 297.517C205.16 297.873 206.831 298.387 208.436 299.056L209.572 294.441C207.968 293.684 206.142 293.104 204.091 292.702ZM426.907 254.45H421.292L422.83 245.556C422.161 246.671 421.381 247.808 420.49 248.966C419.643 250.082 418.686 251.106 417.616 252.042C416.592 252.933 415.456 253.669 414.207 254.249C413.004 254.83 411.734 255.119 410.398 255.119C408.882 255.119 407.569 254.806 406.454 254.182C405.384 253.559 404.494 252.733 403.78 251.708C403.112 250.638 402.599 249.413 402.243 248.03C401.93 246.604 401.775 245.087 401.775 243.482C401.775 240.941 402.155 238.379 402.911 235.792C403.714 233.162 404.871 230.822 406.387 228.77C407.946 226.675 409.863 224.979 412.135 223.687C414.453 222.35 417.148 221.681 420.223 221.681C422.808 221.681 424.947 222.061 426.64 222.818L429.38 207.236H435.262L426.907 254.45ZM411.935 250.504C413.093 250.504 414.229 250.125 415.344 249.367C416.501 248.565 417.595 247.562 418.619 246.358C419.688 245.154 420.669 243.795 421.56 242.279C422.496 240.762 423.319 239.269 424.033 237.798L425.904 227.165C425.236 226.897 424.389 226.697 423.365 226.563C422.383 226.384 421.448 226.296 420.557 226.296C418.418 226.296 416.547 226.809 414.943 227.834C413.339 228.815 411.98 230.129 410.865 231.779C409.796 233.384 408.994 235.211 408.459 237.263C407.924 239.269 407.657 241.276 407.657 243.282C407.657 244.173 407.724 245.066 407.858 245.957C407.991 246.805 408.213 247.562 408.526 248.231C408.839 248.899 409.261 249.456 409.796 249.902C410.376 250.304 411.087 250.504 411.935 250.504ZM370.962 222.35L365.28 254.45H371.162L374.237 237.062C374.951 235.679 375.707 234.342 376.51 233.05C377.312 231.758 378.159 230.621 379.049 229.639C379.985 228.658 380.942 227.879 381.924 227.299C382.948 226.718 383.996 226.429 385.065 226.429C386.669 226.429 387.784 227.098 388.407 228.436C389.075 229.728 389.41 231.357 389.41 233.317C389.41 234.789 389.276 236.281 389.009 237.798L386.068 254.45H391.95L394.957 237.397C395.091 236.64 395.179 235.88 395.225 235.123C395.313 234.321 395.358 233.585 395.358 232.916C395.358 231.266 395.179 229.773 394.824 228.436C394.468 227.053 393.933 225.873 393.22 224.891C392.506 223.867 391.615 223.086 390.546 222.551C389.522 221.97 388.319 221.681 386.937 221.681C385.512 221.681 384.217 221.903 383.06 222.35C381.902 222.797 380.854 223.399 379.918 224.156C378.983 224.913 378.135 225.806 377.378 226.831C376.622 227.855 375.929 228.949 375.306 230.107L376.643 222.35H370.962ZM353.228 221.681C355.859 221.681 357.997 222.395 359.644 223.821C361.294 225.204 362.117 227.01 362.117 229.238C362.117 231.466 361.449 233.296 360.112 234.722C358.821 236.148 357.171 237.284 355.166 238.132C353.161 238.98 350.955 239.604 348.549 240.005C346.143 240.406 343.827 240.674 341.597 240.807C341.464 241.61 341.397 242.434 341.397 243.282C341.397 245.376 341.889 247.115 342.867 248.498C343.849 249.881 345.586 250.571 348.081 250.571C349.642 250.571 351.201 250.349 352.76 249.902C354.321 249.413 355.768 248.787 357.104 248.03L358.241 252.176C356.682 253.067 354.99 253.781 353.161 254.316C351.38 254.851 349.485 255.119 347.479 255.119C345.52 255.119 343.803 254.806 342.333 254.182C340.862 253.559 339.638 252.69 338.656 251.574C337.721 250.459 337.01 249.167 336.518 247.696C336.028 246.179 335.782 244.552 335.782 242.814C335.782 240.139 336.183 237.531 336.985 234.989C337.788 232.448 338.948 230.196 340.461 228.235C341.977 226.229 343.803 224.645 345.942 223.487C348.126 222.283 350.554 221.681 353.228 221.681ZM352.492 226.095C351.156 226.095 349.931 226.408 348.816 227.031C347.704 227.612 346.701 228.39 345.808 229.372C344.964 230.308 344.25 231.4 343.669 232.649C343.092 233.852 342.667 235.056 342.4 236.26C343.961 236.214 345.565 236.081 347.212 235.859C348.907 235.591 350.444 235.211 351.824 234.722C353.206 234.187 354.343 233.518 355.233 232.716C356.126 231.868 356.57 230.822 356.57 229.572C356.57 228.548 356.193 227.721 355.433 227.098C354.722 226.429 353.741 226.095 352.492 226.095ZM317.738 222.35H311.856L310.987 227.098H316.869L313.861 244.151C313.773 244.552 313.706 244.999 313.661 245.489C313.618 245.935 313.594 246.404 313.594 246.893C313.594 249.48 314.329 251.507 315.8 252.979C317.27 254.404 319.409 255.119 322.216 255.119C323.644 255.119 325.048 254.939 326.427 254.584C327.855 254.271 329.058 253.87 330.037 253.38L329.636 249.1C328.657 249.501 327.609 249.836 326.494 250.103C325.425 250.325 324.334 250.437 323.219 250.437C321.882 250.437 320.925 250.124 320.345 249.501C319.767 248.832 319.476 247.851 319.476 246.559C319.476 246.024 319.543 245.355 319.677 244.552L322.751 227.098H333.111L333.98 222.35H323.62L325.091 213.924H319.209L317.738 222.35ZM274.42 254.45L280.102 222.35H285.783L284.446 230.107C285.069 228.949 285.759 227.855 286.518 226.831C287.275 225.806 288.123 224.913 289.058 224.156C289.994 223.399 291.039 222.797 292.2 222.35C293.357 221.903 294.649 221.681 296.077 221.681C297.456 221.681 298.659 221.97 299.686 222.551C300.755 223.086 301.646 223.867 302.36 224.891C303.071 225.873 303.605 227.053 303.964 228.436C304.319 229.773 304.498 231.266 304.498 232.916C304.498 233.585 304.453 234.321 304.365 235.123C304.319 235.88 304.231 236.64 304.097 237.397L301.09 254.45H295.208L298.149 237.798C298.416 236.281 298.55 234.789 298.55 233.317C298.55 231.357 298.215 229.728 297.547 228.436C296.921 227.098 295.809 226.429 294.205 226.429C293.136 226.429 292.088 226.718 291.064 227.299C290.082 227.879 289.125 228.658 288.189 229.639C287.296 230.621 286.452 231.758 285.65 233.05C284.847 234.342 284.088 235.679 283.377 237.062L280.302 254.45H274.42ZM268.899 242.078C269.701 239.625 270.102 237.196 270.102 234.789C270.102 233.004 269.814 231.333 269.233 229.773C268.699 228.168 267.875 226.764 266.76 225.56C265.691 224.356 264.378 223.42 262.817 222.751C261.258 222.037 259.475 221.681 257.47 221.681C254.708 221.681 252.235 222.262 250.05 223.42C247.911 224.535 246.107 226.049 244.636 227.967C243.166 229.84 242.029 232.025 241.227 234.521C240.471 236.974 240.091 239.515 240.091 242.145C240.091 244.017 240.358 245.756 240.893 247.361C241.428 248.921 242.23 250.282 243.299 251.441C244.369 252.599 245.663 253.514 247.176 254.182C248.738 254.806 250.518 255.119 252.523 255.119C255.288 255.119 257.761 254.517 259.943 253.313C262.127 252.109 263.953 250.55 265.424 248.632C266.94 246.671 268.097 244.486 268.899 242.078ZM257.67 249.234C256.245 250.124 254.641 250.571 252.858 250.571C250.542 250.571 248.804 249.814 247.644 248.297C246.532 246.738 245.973 244.641 245.973 242.011C245.973 239.917 246.24 237.932 246.775 236.059C247.31 234.141 248.045 232.469 248.981 231.044C249.962 229.572 251.12 228.414 252.457 227.566C253.839 226.675 255.355 226.229 257.002 226.229C258.25 226.229 259.32 226.475 260.21 226.964C261.146 227.411 261.905 228.034 262.483 228.837C263.063 229.639 263.485 230.597 263.753 231.712C264.065 232.782 264.22 233.919 264.22 235.123C264.22 236.95 263.953 238.801 263.418 240.674C262.929 242.501 262.194 244.151 261.213 245.622C260.277 247.094 259.098 248.297 257.67 249.234ZM239.674 227.499C239.495 227.454 239.294 227.432 239.072 227.432H238.471C236.107 227.432 233.993 228.214 232.121 229.773C230.292 231.333 228.712 233.497 227.375 236.26L224.167 254.45H218.285L223.967 222.35H229.715L228.244 230.709C229.268 227.901 230.605 225.782 232.255 224.356C233.902 222.885 235.886 222.149 238.204 222.149C238.559 222.149 238.939 222.171 239.34 222.216C239.741 222.216 240.051 222.262 240.276 222.35L239.674 227.499ZM194.129 209.911L186.242 254.45H192.258L195.666 235.19H213.245L214.047 230.308H196.535L199.276 214.793H217.657L218.526 209.911H194.129Z" fill="black"/>
</g>
<defs>
<clipPath id="clip0_21_113">
<rect width="640" height="640" fill="white"/>
</clipPath>
</defs>
</svg>
